<svg width="512" height="512" viewBox="0 0 512 512" fill="none" xmlns="http://www.w3.org/2000/svg">
<g clip-path="url(#clip_flat_1)">
<path d="M462 381C455.2 384.6 448.2 387.8 441 390.4C418 399 393.8 403.4 369.2 403.4C274.6 403.4 192.2 338.4 192.2 254.8C192.4 232 205 211 225 200.2C139.4 203.8 117.4 293 117.4 345.2C117.4 493 253.6 508 283 508C298.8 508 322.6 503.4 337 498.8L339.6 498C394.8 479 441.6 441.8 472.8 392.4C475.2 388.6 474 383.8 470.4 381.4C467.8 379.8 464.6 379.6 462 381Z" fill="#FFFFFF"/>
<path opacity="0.16" d="M462 381C455.2 384.6 448.2 387.8 441 390.4C418 399 393.8 403.4 369.2 403.4C274.6 403.4 192.2 338.4 192.2 254.8C192.4 232 205 211 225 200.2C139.4 203.8 117.4 293 117.4 345.2C117.4 493 253.6 508 283 508C298.8 508 322.6 503.4 337 498.8L339.6 498C394.8 479 441.6 441.8 472.8 392.4C475.2 388.6 474 383.8 470.4 381.4C467.8 379.8 464.6 379.6 462 381Z" fill="#DDEBFF"/>
<path d="M211.4 482.8C193.6 471.8 178.2 457.2 166 440.2C113.4 368.2 129.2 267.2 201.2 214.6C208.8 209.2 216.6 204.2 225 200.2C231.2 197.2 241.8 192 256 192.2C276.2 192.4 295.2 202 307.4 218.2C315.4 229 320 242 320.2 255.6C320.2 255.2 369.2 96.4 160.2 96.4C72.4 96.4 0.200049 179.8 0.200049 252.8C-0.199951 291.4 8.20005 329.8 24.4 364.8C79.6001 482.4 214 540 337.2 499C295 512.2 249 506.4 211.4 482.8Z" fill="#4EA1FF"/>
<path d="M304.6 297.8C303 299.8 298 302.8 298 309.2C298 314.4 301.4 319.4 307.4 323.6C336.2 343.6 390.4 341 390.6 341C412 341 432.8 335.2 451.2 324.4C488.8 302.4 512 262.2 512 218.6C512.6 173.8 496 144 489.4 130.8C447 47.8 355.4 0 256 0C116 0 2 112.4 0 252.4C1 179.4 73.6 120.4 160 120.4C167 120.4 207 121 244 140.6C276.6 157.8 293.8 178.4 305.6 199C318 220.4 320.2 247.2 320.2 258C320.2 268.6 314.8 284.6 304.6 297.8Z" fill="#0B6FFF"/>
<path d="M304.6 297.8C303 299.8 298 302.8 298 309.2C298 314.4 301.4 319.4 307.4 323.6C336.2 343.6 390.4 341 390.6 341C412 341 432.8 335.2 451.2 324.4C488.8 302.4 512 262.2 512 218.6C512.6 173.8 496 144 489.4 130.8C447 47.8 355.4 0 256 0C116 0 2 112.4 0 252.4C1 179.4 73.6 120.4 160 120.4C167 120.4 207 121 244 140.6C276.6 157.8 293.8 178.4 305.6 199C318 220.4 320.2 247.2 320.2 258C320.2 268.6 314.8 284.6 304.6 297.8Z" fill="#9CCBFF"/>
</g>
<defs>
<clipPath id="clip_flat_1">
<rect width="512" height="512" fill="white"/>
</clipPath>
</defs>
</svg>
