<svg width="384" height="384" viewBox="0 0 384 384" fill="none" xmlns="http://www.w3.org/2000/svg">
<g clip-path="url(#clip0_1_17)">
<rect width="384" height="384" fill="#101828"/>
<mask id="mask0_1_17" style="mask-type:luminance" maskUnits="userSpaceOnUse" x="0" y="0" width="384" height="384">
<path d="M384 0H0V384H384V0Z" fill="white"/>
</mask>
<g mask="url(#mask0_1_17)">
<path d="M200.875 2.47198C198.119 0.893146 194.998 0.0625 191.822 0.0625C188.646 0.0625 185.525 0.893146 182.77 2.47198L33.3097 89.2769C27.6247 92.4929 24.4297 98.562 24.4297 104.997V278.961C24.4297 285.39 27.9787 291.462 33.3037 294.681L182.764 381.483C185.52 383.062 188.641 383.893 191.818 383.893C194.994 383.893 198.116 383.062 200.872 381.483L350.332 294.678C356.014 291.462 359.206 285.39 359.206 278.958V104.997C359.206 98.5651 355.657 92.496 350.332 89.2769L200.875 2.47198Z" fill="url(#paint0_linear_1_17)"/>
<path d="M350.69 89.2773L200.522 2.4725C199.049 1.71996 197.501 1.12178 195.905 0.6875L27.6289 290.392C29.0229 292.101 30.7053 293.553 32.5999 294.682L182.771 381.484C187.031 383.982 191.999 384.699 196.616 383.268L354.596 92.4933C353.559 91.1351 352.222 90.0346 350.69 89.2773Z" fill="url(#paint1_linear_1_17)"/>
<path d="M350.695 294.676C354.955 292.177 358.15 287.89 359.568 283.246L195.198 0.324776C190.939 -0.389223 186.321 -0.0322243 182.418 2.46978L33.3125 88.9179L194.13 383.983C196.26 383.623 198.75 382.909 200.88 381.838L350.695 294.676Z" fill="url(#paint2_linear_1_17)"/>
</g>
</g>
<defs>
<linearGradient id="paint0_linear_1_17" x1="252.687" y1="67.1148" x2="116.191" y2="343.836" gradientUnits="userSpaceOnUse">
<stop stop-color="white"/>
<stop offset="0.33" stop-color="#CCE5FF"/>
<stop offset="0.637" stop-color="#66B3FF"/>
<stop offset="0.934" stop-color="#3399FF"/>
<stop offset="1" stop-color="#0088FF"/>
</linearGradient>
<linearGradient id="paint1_linear_1_17" x1="169.111" y1="212.295" x2="549.949" y2="-67.3578" gradientUnits="userSpaceOnUse">
<stop offset="0.138" stop-color="white"/>
<stop offset="0.402" stop-color="#66B3FF"/>
<stop offset="0.713" stop-color="#0088FF"/>
<stop offset="0.908" stop-color="#0066CC"/>
</linearGradient>
<linearGradient id="paint2_linear_1_17" x1="18.9595" y1="191.924" x2="364.8" y2="191.924" gradientUnits="userSpaceOnUse">
<stop offset="0.092" stop-color="#0066CC"/>
<stop offset="0.287" stop-color="#0088FF"/>
<stop offset="0.598" stop-color="#66B3FF"/>
<stop offset="0.862" stop-color="white"/>
</linearGradient>
<clipPath id="clip0_1_17">
<rect width="384" height="384" fill="white"/>
</clipPath>
</defs>
</svg>
